<svg width="114" height="57" viewBox="0 0 114 57" fill="none" xmlns="http://www.w3.org/2000/svg">
<g clip-path="url(#clip0_1740_45186)">
<path d="M21.3529 33.3501C20.9094 33.1781 20.7775 32.8736 20.9543 32.4337L24.9037 22.663C25.0694 22.2964 25.3304 22.1131 25.6841 22.1131H25.7178C26.0771 22.13 26.3213 22.3133 26.4476 22.663L30.4644 32.4337C30.6412 32.8736 30.5149 33.1781 30.0826 33.3501C29.6447 33.5221 29.3416 33.3952 29.1704 32.9666L28.2749 30.7812H23.1045L22.2511 32.9666C22.0799 33.4009 21.7796 33.5278 21.3557 33.3501H21.3529ZM23.6518 29.3826H27.7023L25.6364 24.3295L23.6518 29.3826Z" fill="#646567"/>
<path d="M33.1872 33.4179C32.9486 33.4179 32.7746 33.3615 32.6595 33.2459C32.5472 33.1331 32.4883 32.9554 32.4883 32.7158V22.8294C32.4883 22.5841 32.5444 22.4065 32.6595 22.2965C32.7718 22.1865 32.9486 22.1301 33.1872 22.1301C33.4258 22.1301 33.6083 22.1865 33.7177 22.2965C33.8272 22.4065 33.8834 22.5841 33.8834 22.8294V32.7158C33.8834 32.9554 33.8272 33.1303 33.7177 33.2459C33.6083 33.3587 33.4286 33.4179 33.1872 33.4179Z" fill="#646567"/>
<path d="M43.0424 33.4178C42.1441 33.4178 41.4789 33.2007 41.0438 32.7664C40.6087 32.3321 40.3926 31.6667 40.3926 30.77V29.1937C40.3926 28.2829 40.6087 27.6118 41.0438 27.1803C41.4789 26.7489 42.1441 26.5318 43.0424 26.5318H44.1511C45.0522 26.5318 45.7202 26.7489 46.1525 27.1831C46.5848 27.6174 46.8009 28.2885 46.8009 29.1937V30.7559C46.8009 31.6554 46.5848 32.3265 46.1525 32.7636C45.7202 33.2007 45.0522 33.4178 44.1511 33.4178H43.0424ZM41.5294 30.77C41.5294 31.3537 41.6361 31.7513 41.8466 31.9628C42.0571 32.1742 42.4557 32.2786 43.0424 32.2786H44.1511C44.7406 32.2786 45.142 32.1714 45.3497 31.9599C45.5602 31.7484 45.6641 31.348 45.6641 30.7587V29.1965C45.6641 28.6043 45.5602 28.2011 45.3497 27.9924C45.1392 27.7809 44.7406 27.6766 44.1511 27.6766H43.0424C42.6494 27.6766 42.3434 27.7217 42.1273 27.8091C41.9084 27.8966 41.754 28.0517 41.6641 28.2716C41.5743 28.4915 41.5294 28.7989 41.5294 29.1993V30.7756V30.77Z" fill="#0047BB"/>
<path d="M49.4899 33.4178C49.1109 33.4178 48.9229 33.2289 48.9229 32.8482V27.1042C48.9229 26.7235 49.1109 26.5346 49.4899 26.5346C49.8688 26.5346 50.0569 26.7235 50.0569 27.1042V27.327C50.5341 26.7968 51.2386 26.5318 52.1649 26.5318H52.5439C53.4449 26.5318 54.113 26.7489 54.5452 27.1831C54.9775 27.6174 55.1937 28.2885 55.1937 29.1937V32.8482C55.1937 33.2289 55.0056 33.4178 54.6266 33.4178C54.2477 33.4178 54.0596 33.2289 54.0596 32.8482V29.1937C54.0596 28.6015 53.953 28.1983 53.7396 27.9896C53.5263 27.7781 53.1277 27.6738 52.5467 27.6738H52.1677C51.626 27.6738 51.1572 27.7358 50.7558 27.8599C50.3544 27.984 50.1214 28.1814 50.0597 28.4464V32.8454C50.0597 33.226 49.8716 33.415 49.4927 33.415L49.4899 33.4178Z" fill="#0047BB"/>
<path d="M61.9532 33.4178C61.5743 33.4178 61.3862 33.2289 61.3862 32.8482V24.7806C61.3862 24.4 61.5743 24.211 61.9532 24.211H65.2121C66.3883 24.211 67.2556 24.4902 67.8114 25.0485C68.3672 25.6069 68.6451 26.4782 68.6451 27.6597V29.9691C68.6451 31.1506 68.37 32.022 67.817 32.5803C67.2641 33.1386 66.3967 33.4178 65.2121 33.4178H61.9532ZM62.5202 32.2758H65.2093C65.7848 32.2758 66.2423 32.2053 66.5791 32.0614C66.916 31.9176 67.1546 31.6779 67.2949 31.3424C67.4381 31.004 67.5083 30.5472 67.5083 29.9663V27.6569C67.5083 27.0816 67.4381 26.6248 67.2949 26.2893C67.1546 25.9509 66.9132 25.7112 66.5791 25.5674C66.2423 25.4236 65.7876 25.3503 65.2093 25.3503H62.5202V32.2758Z" fill="#646567"/>
<path d="M71.5784 30.4429V30.77C71.5784 31.3537 71.685 31.7513 71.8955 31.9628C72.1061 32.1742 72.5047 32.2786 73.0913 32.2786H74.2001C74.6604 32.2786 75.0001 32.2363 75.2218 32.1489C75.4436 32.0643 75.5895 31.912 75.6625 31.6949C75.713 31.5229 75.7804 31.3903 75.8702 31.3001C75.9573 31.2099 76.092 31.1647 76.2716 31.1647C76.4513 31.1647 76.6057 31.2155 76.7039 31.3142C76.8022 31.4129 76.833 31.5595 76.7993 31.7484C76.7011 32.3096 76.4344 32.7297 76.0022 33.0061C75.5699 33.2824 74.9692 33.4206 74.2029 33.4206H73.0941C72.1959 33.4206 71.5306 33.2035 71.0956 32.7692C70.6605 32.335 70.4443 31.6695 70.4443 30.7728V29.1965C70.4443 28.2772 70.6605 27.6033 71.0956 27.169C71.5306 26.7376 72.1959 26.5261 73.0941 26.5346H74.2029C75.1039 26.5346 75.772 26.7517 76.2043 27.1831C76.6365 27.6146 76.8527 28.2857 76.8527 29.1965V29.8761C76.8527 30.2568 76.6646 30.4457 76.2857 30.4457H71.5812L71.5784 30.4429ZM73.0913 27.6738C72.5047 27.6653 72.1061 27.7668 71.8955 27.9783C71.6822 28.1898 71.5784 28.5959 71.5784 29.1937V29.3037H75.7158V29.1937C75.7158 28.6015 75.612 28.1983 75.4015 27.9896C75.1909 27.7781 74.7924 27.6738 74.2029 27.6738H73.0941H73.0913Z" fill="#646567"/>
<path d="M86.4775 26.5318C87.3281 26.5318 87.94 26.732 88.3133 27.1352C88.6838 27.5384 88.8719 28.2067 88.8719 29.1373V32.8454C88.8719 33.226 88.6838 33.415 88.3049 33.415C87.926 33.415 87.7379 33.226 87.7379 32.8454V29.1373C87.7379 28.6213 87.6396 28.249 87.4432 28.0178C87.2467 27.7866 86.9267 27.671 86.4804 27.671H85.9274C85.4137 27.671 85.046 27.7866 84.8242 28.0178C84.6025 28.249 84.493 28.6213 84.493 29.1373V32.8454C84.493 33.226 84.3049 33.415 83.926 33.415C83.5471 33.415 83.359 33.226 83.359 32.8454V29.1373C83.359 28.6213 83.2608 28.249 83.0643 28.0178C82.8678 27.7866 82.5478 27.671 82.1015 27.671H81.5485C81.0348 27.671 80.6671 27.7866 80.4482 28.0178C80.2264 28.249 80.1169 28.6213 80.1169 29.1373V32.8454C80.1169 33.226 79.9289 33.415 79.5499 33.415C79.171 33.415 78.9829 33.226 78.9829 32.8454V27.1014C78.9829 26.7207 79.171 26.5318 79.5499 26.5318C79.9289 26.5318 80.1169 26.7207 80.1169 27.1014V27.4144C80.3555 27.1014 80.6194 26.8758 80.9057 26.7376C81.192 26.5994 81.5317 26.5318 81.9302 26.5318H82.1071C82.6657 26.5318 83.1064 26.6107 83.4264 26.7658C83.7464 26.9209 83.9906 27.1747 84.1562 27.5215C84.3948 27.1634 84.6474 26.9096 84.9169 26.7574C85.1835 26.6051 85.5232 26.5289 85.933 26.5289H86.486L86.4775 26.5318Z" fill="#646567"/>
<path d="M93.0206 33.4178C92.2627 33.4178 91.7013 33.2317 91.3308 32.8623C90.9603 32.4901 90.7778 31.9261 90.7778 31.1647C90.7778 30.4034 90.9603 29.8394 91.328 29.4672C91.6957 29.095 92.2599 28.9117 93.0206 28.9117H95.8809C95.8529 28.4351 95.7294 28.1109 95.5104 27.936C95.2887 27.7612 94.9097 27.6738 94.3736 27.6738H93.5904C93.1385 27.6738 92.8045 27.7048 92.5827 27.7668C92.361 27.8289 92.2066 27.9389 92.1168 28.0968C92.0354 28.2857 91.9512 28.4182 91.8669 28.4915C91.7827 28.5649 91.6536 28.6015 91.4824 28.6015C91.2943 28.6015 91.1456 28.5479 91.0361 28.4408C90.9266 28.3336 90.8957 28.1926 90.9406 28.015C91.0754 27.5046 91.3589 27.1296 91.7883 26.8899C92.2178 26.653 92.8185 26.5346 93.5904 26.5346H94.3736C95.2746 26.5346 95.9427 26.7517 96.375 27.186C96.8072 27.6202 97.0234 28.2913 97.0234 29.1965V32.851C97.0234 33.2317 96.8353 33.4206 96.4564 33.4206C96.0774 33.4206 95.8893 33.2317 95.8893 32.851V32.5465C95.4065 33.1302 94.7048 33.4234 93.7813 33.4234H93.0234L93.0206 33.4178ZM93.0206 32.2758H93.7785C94.1125 32.2758 94.4241 32.2447 94.7188 32.1827C95.0108 32.1207 95.2634 32.0107 95.4739 31.8471C95.6844 31.6836 95.822 31.4524 95.8893 31.1478V30.0481H93.0234C92.5771 30.0481 92.2796 30.1214 92.1336 30.2709C91.9876 30.4203 91.9147 30.7164 91.9147 31.1591C91.9147 31.6018 91.9876 31.9064 92.1336 32.053C92.2796 32.1996 92.5771 32.2729 93.0234 32.2729L93.0206 32.2758Z" fill="#646567"/>
<path d="M99.9005 33.4178C99.5216 33.4178 99.3335 33.2289 99.3335 32.8482V27.1042C99.3335 26.7235 99.5216 26.5346 99.9005 26.5346C100.279 26.5346 100.468 26.7235 100.468 27.1042V27.327C100.945 26.7968 101.649 26.5318 102.576 26.5318H102.955C103.856 26.5318 104.524 26.7489 104.956 27.1831C105.388 27.6174 105.604 28.2885 105.604 29.1937V32.8482C105.604 33.2289 105.416 33.4178 105.037 33.4178C104.658 33.4178 104.47 33.2289 104.47 32.8482V29.1937C104.47 28.6015 104.364 28.1983 104.15 27.9896C103.937 27.7781 103.538 27.6738 102.957 27.6738H102.578C102.037 27.6738 101.568 27.7358 101.166 27.8599C100.765 27.984 100.532 28.1814 100.47 28.4464V32.8454C100.47 33.226 100.282 33.415 99.9033 33.415L99.9005 33.4178Z" fill="#646567"/>
<path d="M110.242 33.4178C109.343 33.4178 108.678 33.2007 108.243 32.7636C107.808 32.3265 107.592 31.6582 107.592 30.7559V29.1937C107.592 28.2885 107.808 27.6174 108.243 27.1831C108.678 26.7489 109.343 26.5318 110.242 26.5318H112.863V24.4253C112.863 24.0447 113.051 23.8557 113.43 23.8557C113.809 23.8557 113.997 24.0447 113.997 24.4253V32.8454C113.997 33.226 113.809 33.415 113.43 33.415C113.051 33.415 112.863 33.226 112.863 32.8454V32.7495C112.653 32.9666 112.375 33.133 112.032 33.2458C111.69 33.3586 111.263 33.415 110.755 33.415H110.242V33.4178ZM110.242 32.2757H110.755C111.35 32.2757 111.85 32.1996 112.257 32.0445C112.664 31.8894 112.866 31.6554 112.866 31.3396V27.6738H110.244C109.658 27.6738 109.259 27.7809 109.049 27.9953C108.835 28.2096 108.731 28.61 108.731 29.1937V30.7559C108.731 31.3452 108.838 31.7456 109.051 31.9571C109.265 32.1686 109.663 32.2757 110.244 32.2757H110.242Z" fill="#646567"/>
<path d="M48.2971 47.9878C48.4964 47.7876 48.4992 47.4633 48.2999 47.2631L40.3786 39.3028C40.1793 39.1026 39.8481 39.1026 39.6572 39.3028C39.4579 39.503 39.4551 39.8272 39.6544 40.0275L47.5757 47.9878C47.6768 48.0893 47.8059 48.1373 47.9378 48.1373C48.0698 48.1373 48.2017 48.0865 48.2971 47.9878Z" fill="#C5C6C8"/>
<path d="M42.5062 52.4573C42.7504 52.3163 42.8346 52.0004 42.6942 51.7551L37.0887 42.007C36.9399 41.7616 36.6255 41.6771 36.3898 41.818C36.1456 41.959 36.0613 42.2749 36.2017 42.5202L41.8072 52.2683C41.9027 52.4319 42.0739 52.5249 42.2507 52.5249C42.3378 52.5249 42.4276 52.5024 42.5062 52.4573Z" fill="#C5C6C8"/>
<path d="M35.7583 55.263C36.0306 55.1897 36.1934 54.9077 36.1204 54.637L33.2208 43.7637C33.145 43.4902 32.8503 43.3238 32.5949 43.4C32.3226 43.4733 32.1598 43.7553 32.2328 44.026L35.1324 54.8992C35.1969 55.1305 35.399 55.2799 35.6264 55.2799C35.6713 55.2799 35.7134 55.2743 35.7583 55.263Z" fill="#C5C6C8"/>
<path d="M29.0242 55.7085V44.4518C29.0242 44.1698 28.7968 43.9386 28.5133 43.9386C28.2298 43.9386 28.0024 44.1698 28.0024 44.4518V55.7085C28.0024 55.9905 28.2298 56.2217 28.5133 56.2217C28.7968 56.2217 29.0242 55.9905 29.0242 55.7085Z" fill="#C5C6C8"/>
<path d="M21.8998 54.902L24.7995 44.0288C24.8724 43.7553 24.7068 43.4733 24.4374 43.4028C24.1651 43.3351 23.8872 43.4902 23.8114 43.7665L20.9118 54.6398C20.8388 54.9133 21.0044 55.1953 21.2739 55.2658C21.3188 55.2771 21.3609 55.2827 21.4058 55.2827C21.6332 55.2827 21.8353 55.1333 21.8998 54.902Z" fill="#C5C6C8"/>
<path d="M15.2225 52.2683L20.8224 42.5202C20.9628 42.2749 20.8786 41.9619 20.6344 41.8181C20.3901 41.6742 20.0758 41.7588 19.9354 42.007L14.3355 51.7551C14.1951 52.0004 14.2793 52.3134 14.5236 52.4573C14.6021 52.5024 14.692 52.5249 14.779 52.5249C14.9558 52.5249 15.1271 52.4319 15.2225 52.2683Z" fill="#C5C6C8"/>
<path d="M9.45382 47.9878L17.3751 40.0275C17.5744 39.8272 17.5716 39.503 17.3723 39.3028C17.1814 39.1026 16.8502 39.1026 16.6509 39.3028L8.72962 47.2631C8.53032 47.4633 8.53313 47.7876 8.73243 47.9878C8.82786 48.0893 8.95979 48.1373 9.09172 48.1373C9.22365 48.1373 9.35558 48.0865 9.45382 47.9878Z" fill="#C5C6C8"/>
<path d="M4.97973 42.3538L14.6835 36.7254C14.9277 36.5845 15.0119 36.2686 14.8715 36.0233C14.7284 35.778 14.4084 35.6934 14.1726 35.8344L4.46886 41.4627C4.22466 41.6037 4.14045 41.9196 4.2808 42.1649C4.37623 42.3284 4.54746 42.4215 4.7243 42.4215C4.81132 42.4215 4.90114 42.3989 4.97973 42.3538Z" fill="#C5C6C8"/>
<path d="M28.5133 12.2832C28.2298 12.2832 28.0024 12.0519 28.0024 11.77V0.513209C28.0024 0.231226 28.2298 0 28.5133 0C28.7968 0 29.0242 0.231226 29.0242 0.513209V11.77C29.0242 12.0519 28.7968 12.2832 28.5133 12.2832Z" fill="#C5C6C8"/>
<path d="M33.2206 12.458L36.1203 1.58475C36.1932 1.31122 36.0276 1.02924 35.7582 0.958745C35.4831 0.88543 35.208 1.04898 35.1322 1.3225L32.2326 12.1958C32.1596 12.4693 32.3252 12.7513 32.5947 12.8218C32.6396 12.833 32.6817 12.8387 32.7266 12.8387C32.954 12.8387 33.1561 12.6892 33.2206 12.458Z" fill="#C5C6C8"/>
<path d="M37.0887 14.2148L42.6942 4.46661C42.8346 4.22128 42.7504 3.90828 42.5062 3.76447C42.262 3.6263 41.9504 3.70525 41.8072 3.9534L36.2017 13.7015C36.0613 13.9469 36.1456 14.2599 36.3898 14.4037C36.4684 14.4488 36.5582 14.4714 36.6452 14.4714C36.822 14.4714 36.9933 14.3783 37.0887 14.2148Z" fill="#C5C6C8"/>
<path d="M40.3811 16.919L48.3024 8.95859C48.5017 8.75838 48.4989 8.4341 48.2996 8.2339C48.1087 8.03369 47.7775 8.03369 47.5782 8.2339L39.6569 16.1943C39.4576 16.3945 39.4604 16.7188 39.6597 16.919C39.7551 17.0205 39.887 17.0684 40.019 17.0684C40.1509 17.0684 40.2828 17.0177 40.3811 16.919Z" fill="#C5C6C8"/>
<path d="M42.8572 20.3845L52.5609 14.7562C52.8051 14.6152 52.8893 14.2993 52.749 14.054C52.6002 13.8087 52.2914 13.7241 52.05 13.8651L42.3463 19.4935C42.1021 19.6345 42.0179 19.9503 42.1582 20.1956C42.2537 20.3592 42.4249 20.4522 42.6017 20.4522C42.6888 20.4522 42.7786 20.4297 42.8572 20.3845Z" fill="#C5C6C8"/>
<path d="M2.11068 35.747L12.9316 32.8341C13.2039 32.7608 13.3667 32.4788 13.2937 32.2081C13.2179 31.9317 12.9232 31.7654 12.6677 31.8443L1.84683 34.7572C1.57455 34.8305 1.41175 35.1125 1.48473 35.3832C1.54929 35.6144 1.75139 35.7639 1.97876 35.7639C2.02367 35.7639 2.06577 35.7582 2.11068 35.747Z" fill="#C5C6C8"/>
<path d="M12.7608 28.1111C12.7608 27.829 12.5334 27.5977 12.2499 27.5977H1.04163C0.758127 27.5977 0.530762 27.829 0.530762 28.1111C0.530762 28.3932 0.758127 28.6245 1.04163 28.6245H12.2499C12.5334 28.6245 12.7608 28.3932 12.7608 28.1111Z" fill="#C5C6C8"/>
<path d="M13.294 24.0137C13.367 23.7401 13.2014 23.4582 12.9319 23.3877L2.11099 20.4748C1.84713 20.4071 1.56363 20.5622 1.48503 20.8385C1.41205 21.1121 1.57766 21.394 1.84713 21.4645L12.6681 24.3774C12.713 24.3887 12.7551 24.3943 12.8 24.3943C13.0273 24.3943 13.2294 24.2449 13.294 24.0137Z" fill="#C5C6C8"/>
<path d="M14.8715 20.1956C15.0119 19.9503 14.9277 19.6373 14.6835 19.4935L4.97973 13.8651C4.73553 13.7241 4.42395 13.8059 4.2808 14.054C4.14045 14.2993 4.22466 14.6124 4.46886 14.7562L14.1726 20.3845C14.2512 20.4297 14.341 20.4522 14.428 20.4522C14.6049 20.4522 14.7761 20.3592 14.8715 20.1956Z" fill="#C5C6C8"/>
<path d="M17.3723 16.919C17.5716 16.7188 17.5744 16.3945 17.3751 16.1943L9.45382 8.2339C9.25452 8.03369 8.9233 8.03369 8.73243 8.2339C8.53313 8.4341 8.53032 8.75838 8.72962 8.95859L16.6509 16.919C16.752 17.0205 16.8811 17.0684 17.013 17.0684C17.145 17.0684 17.2769 17.0177 17.3723 16.919Z" fill="#C5C6C8"/>
<path d="M20.6344 14.4037C20.8786 14.2627 20.9628 13.9497 20.8224 13.7015L15.2225 3.9534C15.0737 3.70525 14.765 3.6263 14.5236 3.76447C14.2793 3.90546 14.1951 4.21846 14.3355 4.46661L19.9354 14.2148C20.0309 14.3783 20.2021 14.4714 20.3789 14.4714C20.4659 14.4714 20.5558 14.4488 20.6344 14.4037Z" fill="#C5C6C8"/>
<path d="M24.4375 12.8218C24.7098 12.7484 24.8726 12.4665 24.7996 12.1958L21.9 1.3225C21.8242 1.04616 21.5323 0.876967 21.2741 0.958742C21.0018 1.03206 20.839 1.31404 20.912 1.58474L23.8116 12.458C23.8761 12.6892 24.0782 12.8387 24.3056 12.8387C24.3505 12.8387 24.3926 12.833 24.4375 12.8218Z" fill="#C5C6C8"/>
<path d="M32.7266 13.0868C32.6621 13.0868 32.5947 13.0784 32.5301 13.0614C32.1259 12.9543 31.8873 12.537 31.9968 12.1309L33.4957 6.4997C33.6024 6.09647 34.015 5.84832 34.422 5.96394C34.8262 6.07109 35.0648 6.48843 34.9554 6.89448L33.4564 12.5257C33.3638 12.8641 33.0606 13.0896 32.7266 13.0896V13.0868ZM37.302 14.3388L39.5644 10.4023C39.7721 10.0386 39.6486 9.57614 39.2893 9.36747C38.9272 9.15598 38.4641 9.28287 38.2564 9.64663L35.9939 13.5831C35.7862 13.9469 35.9097 14.4093 36.269 14.618C36.3897 14.6885 36.5217 14.7195 36.648 14.7195C36.9062 14.7195 37.1616 14.5841 37.302 14.3388ZM40.4935 17.0346L42.9637 14.556C43.2275 14.2909 43.2275 13.8623 42.9665 13.5972C42.7026 13.3321 42.276 13.3321 42.0121 13.5972L39.542 16.0758C39.2781 16.3409 39.2781 16.7695 39.5392 17.0346C39.6711 17.1671 39.8451 17.232 40.0192 17.232C40.1932 17.232 40.3616 17.1671 40.4935 17.0346ZM42.9188 20.4917L45.1952 19.172C45.4984 18.9944 45.6022 18.608 45.4254 18.3035C45.2542 18.0018 44.8668 17.8918 44.5637 18.0723L42.2872 19.392C41.984 19.5696 41.8802 19.9559 42.057 20.2605C42.1721 20.4635 42.3854 20.5763 42.6044 20.5763C42.7111 20.5763 42.8205 20.5509 42.9188 20.4917ZM48.9369 48.6279C49.4871 48.0752 49.4871 47.1785 48.9369 46.623L41.0156 38.6627C40.4655 38.11 39.5728 38.11 39.0199 38.6627C38.4697 39.2153 38.4697 40.1121 39.0199 40.6676L46.9412 48.6279C47.2163 48.9043 47.5784 49.0424 47.9377 49.0424C48.2969 49.0424 48.659 48.9043 48.9341 48.6279H48.9369ZM42.9384 53.2017C43.5924 52.8238 43.817 51.9807 43.4381 51.3237L37.8325 41.5755C37.4536 40.9129 36.6031 40.6901 35.9631 41.0736C35.309 41.4515 35.0845 42.2946 35.4634 42.9516L41.069 52.6998C41.3216 53.1397 41.7819 53.3878 42.2535 53.3878C42.4893 53.3878 42.7251 53.3286 42.9384 53.2045V53.2017ZM35.9687 56.0582C36.6788 55.8664 37.0971 55.1361 36.9062 54.4255L34.0066 43.5522C33.8241 42.8416 33.114 42.4271 32.3842 42.6076C31.674 42.7994 31.2558 43.5297 31.4466 44.2403L34.3462 55.1135C34.5006 55.7113 35.0396 56.1033 35.6262 56.1033C35.7385 56.1033 35.8536 56.0864 35.9687 56.0582ZM29.8017 55.7085V44.4518C29.8017 43.7383 29.2235 43.1603 28.5133 43.1603C27.8032 43.1603 27.2249 43.7383 27.2249 44.4518V55.7085C27.2249 56.4219 27.8032 57 28.5133 57C29.2235 57 29.8017 56.4219 29.8017 55.7085ZM22.6102 55.0938L25.5099 44.2205C25.6867 43.5522 25.2909 42.867 24.6285 42.6866C23.9716 42.5089 23.2839 42.9037 23.1015 43.5692L20.2019 54.4424C20.025 55.1107 20.4208 55.7959 21.0833 55.9764C21.1899 56.0074 21.2994 56.0215 21.4061 56.0215C21.9562 56.0215 22.4587 55.6521 22.6102 55.0938ZM15.8258 52.618L21.4257 42.8698C21.7569 42.2918 21.5576 41.5502 20.9822 41.2174C20.404 40.8847 19.6685 41.0764 19.3345 41.6601L13.7346 51.4083C13.4033 51.9863 13.6026 52.728 14.1781 53.0607C14.3689 53.1707 14.5739 53.2243 14.7816 53.2243C15.197 53.2243 15.604 53.0071 15.8258 52.618ZM9.91426 48.4531L17.8356 40.4927C18.2903 40.0359 18.2903 39.2943 17.8356 38.8375C17.3808 38.3807 16.6482 38.3807 16.1935 38.8375L8.27218 46.7979C7.81745 47.2547 7.81745 47.9963 8.27218 48.4531C8.49954 48.6815 8.79428 48.7971 9.09463 48.7971C9.39497 48.7971 9.68971 48.6815 9.91707 48.4531H9.91426ZM5.28836 42.8868L14.9921 37.2584C15.5254 36.9454 15.7135 36.2573 15.4019 35.7159C15.0903 35.1745 14.4054 34.9912 13.8665 35.3042L4.16276 40.9326C3.62943 41.2456 3.44136 41.9337 3.75294 42.4751C3.96065 42.836 4.3396 43.039 4.72696 43.039C4.91783 43.039 5.10871 42.9911 5.28836 42.8896V42.8868ZM2.25962 36.3025L13.0805 33.3896C13.6588 33.2345 14.0012 32.6395 13.8468 32.0586C13.6925 31.4777 13.0862 31.1253 12.522 31.2888L1.70103 34.2017C1.12279 34.3568 0.780341 34.9518 0.934725 35.5326C1.06104 36.0205 1.50174 36.3391 1.97892 36.3391C2.07155 36.3391 2.16699 36.3278 2.25681 36.2996L2.25962 36.3025ZM13.2939 28.1109C13.2939 27.5328 12.8279 27.0647 12.2525 27.0647H1.04139C0.465959 27.0647 0 27.5328 0 28.1109C0 28.6889 0.465959 29.157 1.04139 29.157H12.2497C12.8251 29.157 13.2911 28.6889 13.2911 28.1109H13.2939ZM13.7683 24.1405C13.9114 23.6048 13.597 23.0521 13.0609 22.9083L2.23997 19.9954C1.67858 19.8544 1.15367 20.173 1.01613 20.706C0.872972 21.2418 1.18735 21.7945 1.72349 21.9383L12.5444 24.8511C12.6314 24.8737 12.7212 24.885 12.8026 24.885C13.2462 24.885 13.6476 24.5889 13.7683 24.1405ZM15.2588 20.4212C15.5254 19.9587 15.3654 19.3694 14.9079 19.1015L5.20134 13.476C4.73819 13.2081 4.15153 13.366 3.89329 13.8284C3.62662 14.2909 3.78662 14.8802 4.24416 15.1481L13.9507 20.7737C14.1023 20.8611 14.2651 20.9006 14.4307 20.9006C14.7619 20.9006 15.0847 20.7286 15.2616 20.4184L15.2588 20.4212ZM17.6643 17.2066C18.0236 16.8457 18.0236 16.2619 17.6643 15.901L10.2399 8.44257C9.88058 8.08163 9.29953 8.08163 8.94024 8.44257C8.58095 8.8035 8.58095 9.38721 8.94024 9.74815L16.3647 17.2066C16.5444 17.3871 16.7801 17.4773 17.0159 17.4773C17.2517 17.4773 17.4875 17.3871 17.6672 17.2066H17.6643ZM20.8194 14.7195C21.2376 14.477 21.3808 13.9356 21.1422 13.5154L16.3423 5.16311C16.0952 4.74013 15.5563 4.59632 15.1409 4.84165C14.7226 5.08415 14.5795 5.62556 14.8181 6.04571L19.618 14.398C19.7808 14.68 20.0755 14.8379 20.3787 14.8379C20.5303 14.8379 20.679 14.7985 20.8166 14.7195H20.8194ZM24.5218 13.1376C24.9681 13.0163 25.2348 12.5539 25.1169 12.1055L22.9443 3.94776C22.8236 3.49941 22.366 3.23716 21.9197 3.35278C21.4734 3.47403 21.2068 3.93648 21.3246 4.38483L23.4973 12.5426C23.5983 12.9176 23.9351 13.1658 24.3057 13.1658C24.3786 13.1658 24.4488 13.1545 24.5218 13.1376ZM29.3133 11.7671V4.6076C29.3133 4.16489 28.954 3.80677 28.5161 3.80677C28.0782 3.80677 27.719 4.16207 27.719 4.6076V11.7671C27.719 12.2099 28.0782 12.568 28.5161 12.568C28.954 12.568 29.3133 12.2127 29.3133 11.7671Z" fill="url(#paint0_linear_1740_45186)"/>
<path d="M61.3943 40.9073C61.3101 40.9073 61.2651 40.8651 61.2651 40.7776V37.9042C61.2651 37.8196 61.3072 37.7745 61.3943 37.7745C61.4813 37.7745 61.5206 37.8168 61.5206 37.9042V39.3L62.9549 37.8225C63.0139 37.7632 63.0728 37.7604 63.1318 37.8225C63.1935 37.8817 63.1963 37.9409 63.1374 38.0057L62.0539 39.1196L63.3283 40.7071C63.3816 40.7748 63.376 40.834 63.3114 40.8876C63.2441 40.9412 63.1851 40.9355 63.1346 40.8707L61.8771 39.3057L61.5178 39.6723V40.7833C61.5178 40.8679 61.4757 40.913 61.3915 40.913L61.3943 40.9073Z" fill="#646567"/>
<path d="M63.9626 40.9073C63.8784 40.9073 63.8335 40.865 63.8335 40.7775V38.7388C63.8335 38.6542 63.8756 38.6119 63.9626 38.6119C64.0496 38.6119 64.0889 38.6542 64.0889 38.7388V38.9728C64.2433 38.7332 64.5184 38.6147 64.9198 38.6147H65.0545C65.3549 38.6147 65.5766 38.6852 65.717 38.8234C65.8573 38.9644 65.9247 39.1843 65.9247 39.4889V40.7804C65.9247 40.865 65.8826 40.9101 65.7984 40.9101C65.7142 40.9101 65.6693 40.8678 65.6693 40.7804V39.4889C65.6693 39.2576 65.6244 39.0969 65.5317 39.0067C65.4419 38.9165 65.2819 38.8713 65.0517 38.8713H64.917C64.6672 38.8713 64.4707 38.9108 64.3275 38.9898C64.1844 39.0687 64.103 39.1928 64.0861 39.362V40.7832C64.0861 40.8678 64.044 40.9129 63.9598 40.9129L63.9626 40.9073Z" fill="#646567"/>
<path d="M67.4965 40.9072C67.1962 40.9072 66.9744 40.8367 66.8341 40.6986C66.6937 40.5576 66.6235 40.3376 66.6235 40.0359V39.486C66.6235 39.1787 66.6937 38.9559 66.8341 38.8178C66.9744 38.6768 67.1962 38.6091 67.4965 38.6119H67.8923C68.1926 38.6119 68.4144 38.6824 68.5547 38.8206C68.6951 38.9616 68.7625 39.1815 68.7625 39.486V40.0303C68.7625 40.332 68.6923 40.5548 68.5547 40.6958C68.4144 40.8367 68.1954 40.9072 67.8923 40.9072H67.4965ZM66.879 40.0359C66.879 40.2643 66.9239 40.4251 67.0165 40.5153C67.1091 40.6055 67.2691 40.6535 67.4993 40.6535H67.8951C68.1253 40.6535 68.2853 40.6083 68.3751 40.5153C68.4649 40.4251 68.5098 40.2615 68.5098 40.0303V39.486C68.5098 39.2548 68.4649 39.0941 68.3751 39.0039C68.2853 38.9136 68.1253 38.8685 67.8951 38.8685H67.4993C67.3449 38.8685 67.2214 38.8854 67.1316 38.9249C67.0418 38.9644 66.9772 39.0292 66.9379 39.1195C66.8986 39.2097 66.879 39.3338 66.879 39.4889V40.0387V40.0359Z" fill="#646567"/>
<path d="M69.908 40.9072C69.8322 40.9072 69.7845 40.8734 69.762 40.8029L69.08 38.7839C69.0519 38.7021 69.08 38.6457 69.1585 38.6204C69.2371 38.595 69.2905 38.6204 69.3157 38.6993L69.9782 40.6478H69.8771L70.5115 38.7332C70.534 38.6655 70.5817 38.6316 70.6575 38.6316C70.7333 38.6316 70.7754 38.6655 70.795 38.736L71.3873 40.6422H71.2806L71.9768 38.6965C72.0076 38.6147 72.0638 38.5865 72.1424 38.6175C72.2238 38.6486 72.249 38.7021 72.2182 38.7839L71.4715 40.8001C71.4462 40.8706 71.3957 40.9044 71.3227 40.9044C71.2413 40.9044 71.188 40.8706 71.1683 40.8001L70.6182 39.0349H70.6659L70.0624 40.8001C70.0484 40.8396 70.0287 40.8678 70.0006 40.8819C69.9726 40.896 69.9417 40.9044 69.908 40.9044V40.9072Z" fill="#646567"/>
<path d="M73.3607 40.9072C73.1305 40.9072 72.9649 40.8537 72.8582 40.7465C72.7516 40.6393 72.6982 40.473 72.6982 40.2446V37.6673C72.6982 37.5827 72.7404 37.5404 72.8274 37.5404C72.9144 37.5404 72.9537 37.5827 72.9537 37.6673V40.2446C72.9537 40.4025 72.9817 40.5096 73.0407 40.566C73.0996 40.6224 73.2063 40.6534 73.3607 40.6534C73.4477 40.6534 73.4926 40.6957 73.4926 40.7803C73.4926 40.8649 73.4505 40.9101 73.3635 40.9101L73.3607 40.9072Z" fill="#646567"/>
<path d="M74.1017 39.8583V40.0359C74.1017 40.2643 74.1467 40.4251 74.2393 40.5153C74.3291 40.6055 74.4919 40.6535 74.7221 40.6535H75.1179C75.32 40.6535 75.4688 40.6281 75.5614 40.5745C75.654 40.5209 75.7102 40.4307 75.727 40.301C75.7326 40.2615 75.7466 40.2305 75.7663 40.2079C75.7859 40.1854 75.8168 40.1769 75.8589 40.1769C75.901 40.1769 75.9319 40.1882 75.9544 40.2136C75.9768 40.2389 75.9852 40.27 75.9796 40.3123C75.9572 40.5153 75.8786 40.6676 75.7354 40.7634C75.5923 40.8593 75.3873 40.9101 75.1179 40.9101H74.7221C74.4218 40.9101 74.2 40.8396 74.0596 40.7014C73.9193 40.5632 73.8491 40.3405 73.8491 40.0387V39.4889C73.8491 39.1815 73.9193 38.9587 74.0596 38.8206C74.2 38.6824 74.4218 38.6119 74.7221 38.6147H75.1179C75.4182 38.6147 75.64 38.6852 75.7775 38.8234C75.9179 38.9644 75.988 39.1843 75.988 39.4889V39.7314C75.988 39.816 75.9459 39.8611 75.8617 39.8611H74.1017V39.8583ZM74.7193 38.8685C74.4891 38.8657 74.3291 38.9108 74.2365 39.001C74.1439 39.0913 74.0989 39.2548 74.0989 39.4889V39.6045H75.7298V39.4889C75.7298 39.2576 75.6849 39.0969 75.5951 39.0067C75.5052 38.9164 75.3452 38.8713 75.1151 38.8713H74.7193V38.8685Z" fill="#646567"/>
<path d="M77.537 40.9072C77.2367 40.9072 77.0149 40.8368 76.8746 40.6958C76.7342 40.5548 76.6641 40.332 76.6641 40.0303V39.4861C76.6641 39.1843 76.7342 38.9616 76.8746 38.8206C77.0149 38.6796 77.2367 38.6119 77.537 38.6119H78.5504V37.6644C78.5504 37.5799 78.5925 37.5376 78.6795 37.5376C78.7665 37.5376 78.8058 37.5799 78.8058 37.6644V40.7775C78.8058 40.8621 78.7637 40.9072 78.6795 40.9072C78.5953 40.9072 78.5504 40.865 78.5504 40.7775V40.5689C78.4802 40.6817 78.3791 40.7634 78.2444 40.8227C78.1097 40.8791 77.9356 40.9072 77.7195 40.9072H77.537ZM77.537 40.6535H77.7195C77.9721 40.6535 78.1714 40.614 78.323 40.5322C78.4746 40.4533 78.5504 40.332 78.5504 40.1713V38.8685H77.537C77.3069 38.8685 77.1469 38.9136 77.0542 39.0067C76.9616 39.0997 76.9167 39.2576 76.9167 39.4889V40.0331C76.9167 40.2643 76.9616 40.4251 77.0542 40.5181C77.1469 40.6112 77.3069 40.6563 77.537 40.6563V40.6535Z" fill="#646567"/>
<path d="M80.1223 41.8801C79.9314 41.8801 79.7883 41.8406 79.6872 41.7617C79.5862 41.6827 79.5272 41.5586 79.5104 41.3923C79.5048 41.35 79.5132 41.3161 79.5356 41.2936C79.5581 41.2682 79.589 41.2569 79.6311 41.2569C79.6732 41.2569 79.7012 41.2682 79.7237 41.2879C79.7433 41.3105 79.7574 41.3415 79.7658 41.3838C79.777 41.4769 79.8107 41.5417 79.864 41.5756C79.9202 41.6094 80.0044 41.6263 80.1223 41.6263H81.0205C81.1637 41.6263 81.2591 41.6009 81.3097 41.5473C81.3602 41.4938 81.3854 41.3979 81.3854 41.2569V40.5632C81.3125 40.676 81.2058 40.7634 81.0711 40.8227C80.9363 40.8819 80.7651 40.9101 80.5574 40.9101H80.3749C80.0746 40.9101 79.8528 40.8396 79.7125 40.7014C79.5721 40.5604 79.502 40.3405 79.502 40.0387V39.4889C79.502 39.1815 79.5721 38.9616 79.7097 38.8234C79.8472 38.6852 80.069 38.6147 80.3721 38.6147H80.7679C80.9251 38.6147 81.0542 38.6345 81.1525 38.6768C81.2507 38.7191 81.3293 38.7839 81.3854 38.8742V38.7416C81.3854 38.657 81.4275 38.6147 81.5146 38.6147C81.6016 38.6147 81.6409 38.657 81.6409 38.7416V41.2569C81.6409 41.4712 81.5903 41.6291 81.4921 41.7278C81.3911 41.8293 81.2367 41.8801 81.0233 41.8801H80.1251H80.1223ZM80.3749 40.6535H80.5574C80.81 40.6535 81.0093 40.614 81.1609 40.535C81.3125 40.4561 81.3882 40.3348 81.3882 40.1741V39.362C81.3882 39.1787 81.3377 39.0518 81.2367 38.9785C81.1356 38.9052 80.9812 38.8685 80.7735 38.8685H80.3777C80.1476 38.8685 79.9876 38.9136 79.8949 39.0039C79.8023 39.0941 79.7574 39.2548 79.7574 39.4889V40.0387C79.7574 40.2672 79.8023 40.4279 79.8949 40.5181C79.9876 40.6083 80.1476 40.6563 80.3777 40.6563L80.3749 40.6535Z" fill="#646567"/>
<path d="M82.5925 39.8583V40.0359C82.5925 40.2643 82.6374 40.4251 82.73 40.5153C82.8226 40.6055 82.9826 40.6535 83.2128 40.6535H83.6086C83.8107 40.6535 83.9595 40.6281 84.0521 40.5745C84.1447 40.5209 84.2009 40.4307 84.2177 40.301C84.2233 40.2615 84.2374 40.2305 84.257 40.2079C84.2767 40.1882 84.3075 40.1769 84.3496 40.1769C84.3917 40.1769 84.4226 40.1882 84.4451 40.2136C84.4675 40.2361 84.476 40.27 84.4703 40.3123C84.4507 40.5153 84.3693 40.6676 84.2261 40.7634C84.083 40.8593 83.8781 40.9101 83.6086 40.9101H83.2128C82.9125 40.9101 82.6907 40.8396 82.5504 40.7014C82.41 40.5632 82.3398 40.3405 82.3398 40.0387V39.4889C82.3398 39.1815 82.41 38.9587 82.5504 38.8206C82.6907 38.6824 82.9125 38.6119 83.2128 38.6147H83.6086C83.9089 38.6147 84.1307 38.6852 84.271 38.8234C84.4114 38.9644 84.4788 39.1843 84.4788 39.4889V39.7314C84.4788 39.816 84.4367 39.8611 84.3525 39.8611H82.5925V39.8583ZM83.21 38.8685C82.9798 38.8657 82.8198 38.9108 82.7272 39.001C82.6346 39.0913 82.5897 39.2548 82.5897 39.4889V39.6045H84.2205V39.4889C84.2205 39.2576 84.1756 39.0969 84.0858 39.0067C83.996 38.9164 83.836 38.8713 83.6058 38.8713H83.21V38.8685Z" fill="#646567"/>
<path d="M87.0166 40.9072C86.7639 40.9072 86.5815 40.848 86.4636 40.7324C86.3457 40.614 86.2896 40.4307 86.2896 40.1769C86.2896 39.9231 86.3485 39.7398 86.4664 39.6214C86.5843 39.503 86.7667 39.4438 87.0166 39.4438H88.1169C88.1141 39.2294 88.0664 39.08 87.9737 38.9954C87.8811 38.9108 87.7239 38.8685 87.5022 38.8685H87.2215C87.0166 38.8685 86.8678 38.8911 86.7724 38.9334C86.6769 38.9785 86.618 39.0518 86.5955 39.1561C86.5843 39.1956 86.5702 39.2266 86.5506 39.2435C86.5309 39.2633 86.5029 39.2717 86.4636 39.2717C86.4243 39.2717 86.3878 39.2605 86.3653 39.2351C86.3429 39.2125 86.3345 39.1787 86.3401 39.1392C86.3625 38.9559 86.4439 38.8206 86.5899 38.736C86.7359 38.6514 86.9464 38.6091 87.2215 38.6091H87.5022C87.8025 38.6091 88.0243 38.6796 88.1618 38.8178C88.3022 38.9587 88.3723 39.1787 88.3723 39.4832V40.7747C88.3723 40.8593 88.3302 40.9044 88.246 40.9044C88.1618 40.9044 88.1169 40.8621 88.1169 40.7747V40.535C87.9625 40.7804 87.6846 40.9044 87.2888 40.9044H87.0194L87.0166 40.9072ZM87.0166 40.6535H87.286C87.4432 40.6535 87.5808 40.6365 87.6987 40.5999C87.8165 40.566 87.912 40.5097 87.985 40.4307C88.058 40.3517 88.1001 40.2502 88.1169 40.1205V39.6975H87.0166C86.8369 39.6975 86.7134 39.7314 86.646 39.8019C86.5787 39.8724 86.5422 39.9964 86.5422 40.1769C86.5422 40.3574 86.5759 40.4815 86.646 40.5491C86.7134 40.6168 86.8369 40.6535 87.0166 40.6535Z" fill="#646567"/>
<path d="M89.2619 40.9073C89.1777 40.9073 89.1328 40.865 89.1328 40.7775V38.7388C89.1328 38.6542 89.1749 38.6119 89.2619 38.6119C89.3489 38.6119 89.3882 38.6542 89.3882 38.7388V38.9728C89.5426 38.7332 89.8177 38.6147 90.2191 38.6147H90.3539C90.6542 38.6147 90.8759 38.6852 91.0163 38.8234C91.1566 38.9644 91.224 39.1843 91.224 39.4889V40.7804C91.224 40.865 91.1819 40.9101 91.0977 40.9101C91.0135 40.9101 90.9686 40.8678 90.9686 40.7804V39.4889C90.9686 39.2576 90.9237 39.0969 90.831 39.0067C90.7412 38.9165 90.5812 38.8713 90.351 38.8713H90.2163C89.9665 38.8713 89.77 38.9108 89.6268 38.9898C89.4837 39.0687 89.4023 39.1928 89.3854 39.362V40.7832C89.3854 40.8678 89.3433 40.9129 89.2591 40.9129L89.2619 40.9073Z" fill="#646567"/>
<path d="M92.7934 40.9072C92.493 40.9072 92.2713 40.8368 92.1309 40.6958C91.9906 40.5548 91.9204 40.332 91.9204 40.0303V39.4861C91.9204 39.1843 91.9906 38.9616 92.1309 38.8206C92.2713 38.6796 92.493 38.6119 92.7934 38.6119H93.8067V37.6644C93.8067 37.5799 93.8488 37.5376 93.9358 37.5376C94.0228 37.5376 94.0621 37.5799 94.0621 37.6644V40.7775C94.0621 40.8621 94.02 40.9072 93.9358 40.9072C93.8516 40.9072 93.8067 40.865 93.8067 40.7775V40.5689C93.7365 40.6817 93.6355 40.7634 93.5007 40.8227C93.366 40.8791 93.192 40.9072 92.9758 40.9072H92.7934ZM92.7934 40.6535H92.9758C93.2285 40.6535 93.4278 40.614 93.5793 40.5322C93.7309 40.4533 93.8067 40.332 93.8067 40.1713V38.8685H92.7934C92.5632 38.8685 92.4032 38.9136 92.3106 39.0067C92.2179 39.0997 92.173 39.2576 92.173 39.4889V40.0331C92.173 40.2643 92.2179 40.4251 92.3106 40.5181C92.4032 40.6112 92.5632 40.6563 92.7934 40.6563V40.6535Z" fill="#646567"/>
<path d="M96.4423 40.9044C96.243 40.9044 96.0915 40.8621 95.9876 40.7775C95.8837 40.6929 95.8192 40.5632 95.7995 40.3884C95.7939 40.3461 95.8023 40.3123 95.8248 40.2897C95.8473 40.2672 95.8809 40.2559 95.923 40.2559C95.9623 40.2559 95.9932 40.2671 96.0129 40.2869C96.0325 40.3066 96.0465 40.3405 96.0522 40.3828C96.0662 40.4843 96.1027 40.552 96.1616 40.5943C96.2206 40.6365 96.3132 40.6535 96.4395 40.6535H97.2311C97.3799 40.6535 97.4837 40.6253 97.5399 40.5689C97.596 40.5125 97.6241 40.4081 97.6241 40.2587C97.6241 40.1092 97.596 40.0021 97.5399 39.9457C97.4837 39.8893 97.3799 39.8611 97.2311 39.8611H96.4479C96.2374 39.8611 96.083 39.8103 95.9792 39.7088C95.8781 39.6073 95.8248 39.4522 95.8248 39.2407C95.8248 39.0292 95.8753 38.8685 95.9764 38.767C96.0774 38.6655 96.2346 38.6147 96.4451 38.6147H97.203C97.5679 38.6147 97.77 38.7755 97.8093 39.0997C97.815 39.142 97.8093 39.1759 97.7841 39.1984C97.7616 39.221 97.7279 39.2323 97.6858 39.2323C97.6437 39.2323 97.6157 39.221 97.596 39.2013C97.5764 39.1815 97.5623 39.1505 97.5539 39.1082C97.5427 39.018 97.509 38.9559 97.4557 38.9193C97.4023 38.8826 97.3181 38.8657 97.203 38.8657H96.4451C96.3048 38.8657 96.2094 38.8911 96.156 38.9447C96.1027 38.9954 96.0774 39.0941 96.0774 39.2379C96.0774 39.3817 96.1055 39.472 96.156 39.5227C96.2065 39.5735 96.3048 39.6017 96.4423 39.6017H97.2255C97.4472 39.6017 97.61 39.6552 97.7167 39.7596C97.8206 39.8667 97.8739 40.0303 97.8739 40.2531C97.8739 40.4758 97.8206 40.6394 97.7167 40.7437C97.6128 40.8509 97.4472 40.9016 97.2255 40.9016H96.4339L96.4423 40.9044Z" fill="#646567"/>
<path d="M98.7326 39.8583V40.0359C98.7326 40.2643 98.7775 40.4251 98.8702 40.5153C98.9628 40.6055 99.1228 40.6535 99.353 40.6535H99.7487C99.9508 40.6535 100.1 40.6281 100.192 40.5745C100.285 40.5209 100.341 40.4307 100.358 40.301C100.363 40.2615 100.378 40.2305 100.397 40.2079C100.417 40.1882 100.448 40.1769 100.49 40.1769C100.532 40.1769 100.563 40.1882 100.585 40.2136C100.608 40.2389 100.616 40.27 100.61 40.3123C100.588 40.5153 100.509 40.6676 100.366 40.7634C100.223 40.8593 100.018 40.9101 99.7487 40.9101H99.353C99.0526 40.9101 98.8309 40.8396 98.6905 40.7014C98.5502 40.5604 98.48 40.3405 98.48 40.0387V39.4889C98.48 39.1815 98.5502 38.9587 98.6905 38.8206C98.8309 38.6796 99.0526 38.6119 99.353 38.6147H99.7487C100.049 38.6147 100.271 38.6852 100.411 38.8234C100.552 38.9644 100.619 39.1843 100.619 39.4889V39.7314C100.619 39.816 100.577 39.8611 100.493 39.8611H98.7326V39.8583ZM99.3501 38.8685C99.12 38.8657 98.96 38.9108 98.8673 39.001C98.7747 39.0913 98.7298 39.2548 98.7298 39.4889V39.6045H100.361V39.4889C100.361 39.2576 100.316 39.0969 100.226 39.0067C100.136 38.9164 99.9761 38.8713 99.7459 38.8713H99.3501V38.8685Z" fill="#646567"/>
<path d="M101.489 40.9073C101.405 40.9073 101.36 40.865 101.36 40.7775V38.7388C101.36 38.6542 101.402 38.6119 101.489 38.6119C101.576 38.6119 101.616 38.6542 101.616 38.7388V39.1138C101.7 38.9531 101.821 38.829 101.981 38.7416C102.141 38.657 102.329 38.6119 102.545 38.6119C102.629 38.6119 102.674 38.6542 102.674 38.7388C102.674 38.8234 102.632 38.8685 102.545 38.8685C102.259 38.8685 102.037 38.9334 101.877 39.0631C101.72 39.1928 101.633 39.3789 101.616 39.6214V40.7804C101.616 40.865 101.574 40.9101 101.489 40.9101V40.9073Z" fill="#646567"/>
<path d="M103.962 40.8114C103.945 40.8509 103.923 40.8762 103.898 40.8903C103.872 40.9044 103.841 40.9101 103.808 40.9101C103.738 40.9101 103.687 40.8762 103.659 40.8114L102.764 38.7952C102.73 38.7162 102.752 38.6598 102.834 38.6288C102.91 38.5978 102.963 38.6204 102.999 38.6965L103.895 40.707H103.74L104.692 38.6937C104.709 38.657 104.734 38.6316 104.762 38.6204C104.79 38.6091 104.824 38.6119 104.86 38.6288C104.939 38.6655 104.961 38.7219 104.925 38.798L103.965 40.8142L103.962 40.8114Z" fill="#646567"/>
<path d="M105.483 38.1693C105.371 38.1693 105.315 38.1129 105.315 37.9973V37.8873C105.315 37.7773 105.371 37.7209 105.483 37.7209H105.59C105.7 37.7209 105.756 37.7773 105.756 37.8873V37.9973C105.756 38.1129 105.7 38.1693 105.59 38.1693H105.483ZM105.537 40.9073C105.452 40.9073 105.408 40.865 105.408 40.7776V38.7389C105.408 38.6543 105.45 38.612 105.537 38.612C105.624 38.612 105.663 38.6543 105.663 38.7389V40.7776C105.663 40.8622 105.621 40.9073 105.537 40.9073Z" fill="#646567"/>
<path d="M107.277 40.9072C106.977 40.9072 106.755 40.8368 106.615 40.6958C106.474 40.5548 106.404 40.332 106.404 40.0303V39.4804C106.404 39.1787 106.474 38.9559 106.612 38.8149C106.75 38.6739 106.971 38.6063 107.274 38.6091H107.67C107.906 38.6091 108.088 38.6486 108.212 38.7303C108.336 38.8093 108.411 38.9362 108.437 39.1082C108.442 39.1533 108.431 39.1843 108.408 39.2069C108.386 39.2294 108.352 39.2407 108.31 39.2407C108.271 39.2407 108.243 39.2294 108.223 39.2097C108.204 39.19 108.19 39.159 108.178 39.1223C108.161 39.0292 108.114 38.9616 108.035 38.9221C107.957 38.8826 107.836 38.8629 107.667 38.8629H107.272C107.041 38.8601 106.881 38.9023 106.789 38.9926C106.696 39.0828 106.651 39.2435 106.651 39.4776V40.0275C106.651 40.2587 106.696 40.4194 106.789 40.5125C106.881 40.6055 107.041 40.6506 107.272 40.6506H107.667C107.836 40.6506 107.957 40.6309 108.035 40.5914C108.114 40.5519 108.159 40.4843 108.178 40.3912C108.187 40.3517 108.204 40.3235 108.223 40.3038C108.243 40.2841 108.271 40.2728 108.31 40.2728C108.352 40.2728 108.386 40.2841 108.408 40.3094C108.431 40.332 108.442 40.3658 108.437 40.4081C108.411 40.5801 108.338 40.707 108.212 40.786C108.086 40.8649 107.906 40.9072 107.67 40.9072H107.274H107.277Z" fill="#646567"/>
<path d="M109.321 39.8583V40.0359C109.321 40.2643 109.366 40.4251 109.459 40.5153C109.551 40.6055 109.711 40.6535 109.941 40.6535H110.337C110.539 40.6535 110.688 40.6281 110.781 40.5745C110.873 40.5209 110.929 40.4307 110.946 40.301C110.952 40.2615 110.966 40.2305 110.986 40.2079C111.005 40.1882 111.036 40.1769 111.078 40.1769C111.12 40.1769 111.151 40.1882 111.174 40.2136C111.196 40.2389 111.204 40.27 111.199 40.3123C111.179 40.5153 111.098 40.6676 110.955 40.7634C110.814 40.8593 110.607 40.9101 110.337 40.9101H109.941C109.641 40.9101 109.419 40.8396 109.279 40.7014C109.139 40.5604 109.068 40.3405 109.068 40.0387V39.4889C109.068 39.1815 109.139 38.9587 109.279 38.8206C109.419 38.6796 109.641 38.6119 109.941 38.6147H110.337C110.637 38.6147 110.859 38.6852 111 38.8234C111.14 38.9644 111.207 39.1843 111.207 39.4889V39.7314C111.207 39.816 111.165 39.8611 111.081 39.8611H109.321V39.8583ZM109.939 38.8685C109.708 38.8657 109.548 38.9108 109.456 39.001C109.363 39.0913 109.318 39.2548 109.318 39.4889V39.6045H110.949V39.4889C110.949 39.2576 110.904 39.0969 110.814 39.0067C110.724 38.9164 110.564 38.8713 110.334 38.8713H109.939V38.8685Z" fill="#646567"/>
<path d="M112.451 40.9044C112.251 40.9044 112.1 40.8621 111.996 40.7775C111.892 40.6929 111.827 40.5632 111.808 40.3884C111.802 40.3461 111.811 40.3123 111.833 40.2897C111.856 40.2672 111.889 40.2559 111.931 40.2559C111.971 40.2559 112.002 40.2671 112.021 40.2869C112.041 40.3066 112.055 40.3405 112.06 40.3828C112.074 40.4843 112.111 40.552 112.17 40.5943C112.229 40.6365 112.322 40.6535 112.448 40.6535H113.239C113.388 40.6535 113.492 40.6253 113.548 40.5689C113.604 40.5125 113.632 40.4081 113.632 40.2587C113.632 40.1092 113.604 40.0021 113.548 39.9457C113.492 39.8893 113.388 39.8611 113.239 39.8611H112.456C112.246 39.8611 112.091 39.8103 111.987 39.7088C111.886 39.6073 111.833 39.4522 111.833 39.2407C111.833 39.0292 111.884 38.8685 111.985 38.767C112.086 38.6655 112.243 38.6147 112.453 38.6147H113.211C113.576 38.6147 113.778 38.7755 113.818 39.0997C113.823 39.142 113.818 39.1759 113.792 39.1984C113.77 39.221 113.736 39.2323 113.694 39.2323C113.652 39.2323 113.624 39.221 113.604 39.2013C113.585 39.1815 113.571 39.1505 113.562 39.1082C113.551 39.018 113.517 38.9559 113.464 38.9193C113.411 38.8826 113.326 38.8657 113.211 38.8657H112.453C112.313 38.8657 112.218 38.8911 112.164 38.9447C112.111 38.9954 112.086 39.0941 112.086 39.2379C112.086 39.3817 112.111 39.472 112.164 39.5227C112.218 39.5735 112.313 39.6017 112.451 39.6017H113.234C113.456 39.6017 113.618 39.6552 113.725 39.7596C113.829 39.8667 113.882 40.0303 113.882 40.2531C113.882 40.4758 113.829 40.6394 113.725 40.7437C113.621 40.8509 113.456 40.9016 113.234 40.9016H112.442L112.451 40.9044Z" fill="#646567"/>
<path d="M61.4364 46.8458C61.3522 46.8458 61.3073 46.8035 61.3073 46.7161V44.8042H61.1052C61.021 44.8042 60.9761 44.7619 60.9761 44.6745C60.9761 44.5871 61.0182 44.5476 61.1052 44.5476H61.3073V44.3333C61.3073 44.0344 61.3775 43.8173 61.515 43.6791C61.6526 43.541 61.8687 43.4733 62.1662 43.4733C62.2476 43.4733 62.2897 43.5156 62.2897 43.6002C62.2897 43.6848 62.2476 43.7299 62.1662 43.7299C61.9417 43.7299 61.7845 43.775 61.6947 43.8624C61.6048 43.9498 61.5627 44.1078 61.5627 44.3333V44.5476H62.1634C62.2476 44.5476 62.2925 44.5899 62.2925 44.6745C62.2925 44.7591 62.2504 44.8042 62.1634 44.8042H61.5627V46.7161C61.5627 46.8007 61.5206 46.8458 61.4364 46.8458Z" fill="#646567"/>
<path d="M63.4208 46.8458C63.1205 46.8458 62.8987 46.7753 62.7584 46.6371C62.618 46.4961 62.5479 46.2762 62.5479 45.9745V45.4246C62.5479 45.1172 62.618 44.8945 62.7584 44.7563C62.8987 44.6153 63.1205 44.5476 63.4208 44.5505H63.8166C64.117 44.5505 64.3387 44.621 64.4791 44.7591C64.6194 44.9001 64.6868 45.1201 64.6868 45.4246V45.9688C64.6868 46.2706 64.6166 46.4933 64.4791 46.6343C64.3387 46.7753 64.1198 46.8458 63.8166 46.8458H63.4208ZM62.8033 45.9745C62.8033 46.2029 62.8482 46.3636 62.9408 46.4538C63.0335 46.5441 63.1935 46.592 63.4236 46.592H63.8194C64.0496 46.592 64.2096 46.5469 64.2994 46.4538C64.3892 46.3636 64.4341 46.2001 64.4341 45.9688V45.4246C64.4341 45.1934 64.3892 45.0327 64.2994 44.9424C64.2096 44.8522 64.0496 44.8071 63.8194 44.8071H63.4236C63.2692 44.8071 63.1457 44.824 63.0559 44.8635C62.9661 44.9029 62.9015 44.9678 62.8622 45.058C62.8229 45.1483 62.8033 45.2723 62.8033 45.4274V45.9773V45.9745Z" fill="#646567"/>
<path d="M65.5569 46.8458C65.4726 46.8458 65.4277 46.8035 65.4277 46.7161V44.6774C65.4277 44.5928 65.4698 44.5505 65.5569 44.5505C65.6439 44.5505 65.6832 44.5928 65.6832 44.6774V45.0524C65.7674 44.8917 65.8881 44.7676 66.0481 44.6802C66.2081 44.5956 66.3961 44.5505 66.6123 44.5505C66.6965 44.5505 66.7414 44.5928 66.7414 44.6774C66.7414 44.762 66.6993 44.8071 66.6123 44.8071C66.326 44.8071 66.1042 44.8719 65.9442 45.0016C65.787 45.1313 65.7 45.3175 65.6832 45.56V46.7189C65.6832 46.8035 65.6411 46.8486 65.5569 46.8486V46.8458Z" fill="#646567"/>
<path d="M69.2032 46.8458C68.9057 46.8458 68.6895 46.7781 68.552 46.64C68.4144 46.5018 68.3471 46.2847 68.3471 45.9886V44.8071H68.0608C67.9766 44.8071 67.9316 44.7648 67.9316 44.6774C67.9316 44.5899 67.9737 44.5505 68.0608 44.5505H68.3471V44.0288C68.3471 43.9442 68.3892 43.8991 68.4734 43.8991C68.5576 43.8991 68.6025 43.9414 68.6025 44.0288V44.5505H69.2088C69.293 44.5505 69.3351 44.5928 69.3351 44.6774C69.3351 44.762 69.293 44.8071 69.2088 44.8071H68.6025V45.9886C68.6025 46.2142 68.6474 46.3721 68.7344 46.4595C68.8215 46.5469 68.9786 46.5892 69.206 46.5892C69.2537 46.5892 69.2874 46.6005 69.3071 46.6202C69.3267 46.6428 69.3379 46.6738 69.3379 46.7161C69.3379 46.8007 69.293 46.8458 69.2088 46.8458H69.2032Z" fill="#646567"/>
<path d="M70.0368 46.8458C69.9526 46.8458 69.9077 46.8035 69.9077 46.7161V43.603C69.9077 43.5184 69.9498 43.4761 70.0368 43.4761C70.1239 43.4761 70.1632 43.5184 70.1632 43.603V44.9086C70.3147 44.6689 70.5926 44.5505 70.994 44.5505H71.1287C71.4291 44.5505 71.6509 44.621 71.7884 44.7591C71.9287 44.9001 71.9961 45.1201 71.9961 45.4246V46.7161C71.9961 46.8007 71.954 46.8458 71.8698 46.8458C71.7856 46.8458 71.7407 46.8035 71.7407 46.7161V45.4246C71.7407 45.1934 71.6958 45.0327 71.6031 44.9424C71.5105 44.8522 71.3533 44.8071 71.1231 44.8071H70.9884C70.7386 44.8071 70.5421 44.8465 70.3989 44.9255C70.2558 45.0045 70.1744 45.1285 70.1575 45.2977V46.7189C70.1575 46.8035 70.1154 46.8486 70.0312 46.8486L70.0368 46.8458Z" fill="#646567"/>
<path d="M72.9509 45.7968V45.9745C72.9509 46.2029 72.9958 46.3636 73.0884 46.4539C73.181 46.5441 73.341 46.592 73.5712 46.592H73.967C74.1691 46.592 74.3179 46.5666 74.4105 46.5131C74.5031 46.4595 74.5593 46.3693 74.5761 46.2395C74.5817 46.2001 74.5958 46.169 74.6154 46.1465C74.6351 46.1267 74.6659 46.1155 74.708 46.1155C74.7501 46.1155 74.781 46.1267 74.8035 46.1521C74.8259 46.1775 74.8344 46.2085 74.8287 46.2508C74.8091 46.4538 74.7277 46.6061 74.5845 46.702C74.4442 46.7979 74.2365 46.8486 73.967 46.8486H73.5712C73.2709 46.8486 73.0491 46.7781 72.9088 46.64C72.7684 46.499 72.6982 46.279 72.6982 45.9773V45.4274C72.6982 45.1201 72.7684 44.8973 72.9088 44.7591C73.0491 44.6181 73.2709 44.5505 73.5712 44.5533H73.967C74.2674 44.5533 74.4891 44.6238 74.6294 44.762C74.7698 44.9029 74.8372 45.1229 74.8372 45.4274V45.6699C74.8372 45.7545 74.7951 45.7996 74.7109 45.7996H72.9509V45.7968ZM73.5684 44.8071C73.3382 44.8042 73.1782 44.8494 73.0856 44.9396C72.993 45.0298 72.9481 45.1934 72.9481 45.4274V45.543H74.5789V45.4274C74.5789 45.1962 74.534 45.0355 74.4442 44.9452C74.3544 44.855 74.1944 44.8099 73.9642 44.8099H73.5684V44.8071Z" fill="#646567"/>
<path d="M76.4512 46.8345C76.3754 46.8007 76.3501 46.7443 76.381 46.6653L77.5796 43.8173C77.6049 43.7496 77.6526 43.7186 77.7228 43.7186H77.7368C77.8042 43.7186 77.8491 43.7525 77.8771 43.8173L79.0757 46.6653C79.1066 46.7443 79.0841 46.8007 79.0084 46.8345C78.9298 46.8655 78.8736 46.843 78.8427 46.7669L78.5199 46.0027H76.9368L76.614 46.7669C76.5831 46.843 76.527 46.8684 76.4484 46.8345H76.4512ZM77.0435 45.7461H78.4161L77.7284 44.119L77.0407 45.7461H77.0435Z" fill="#646567"/>
<path d="M79.696 46.8458C79.6567 46.8458 79.623 46.8345 79.6006 46.812C79.5781 46.7894 79.5669 46.7584 79.5669 46.7161V43.8399C79.5669 43.8004 79.5781 43.7694 79.6006 43.744C79.623 43.7214 79.6539 43.7102 79.696 43.7102C79.7381 43.7102 79.7662 43.7214 79.7886 43.744C79.8111 43.7666 79.8223 43.7976 79.8223 43.8399V46.7161C79.8223 46.7556 79.8111 46.7894 79.7886 46.812C79.7662 46.8345 79.7353 46.8458 79.696 46.8458Z" fill="#646567"/>
<path d="M82.5532 46.8458C82.2528 46.8458 82.031 46.7753 81.8907 46.6343C81.7504 46.4933 81.6802 46.2706 81.6802 45.9688V45.419C81.6802 45.1173 81.7504 44.8945 81.8879 44.7535C82.0254 44.6125 82.2472 44.5448 82.5503 44.5476H82.9461C83.1819 44.5476 83.3644 44.5871 83.4879 44.6689C83.6114 44.7479 83.6872 44.8747 83.7124 45.0468C83.7181 45.0919 83.7068 45.1229 83.6844 45.1454C83.6619 45.168 83.6282 45.1793 83.5861 45.1793C83.5468 45.1793 83.5188 45.168 83.4991 45.1483C83.4795 45.1285 83.4654 45.0975 83.4542 45.0609C83.4373 44.9678 83.3896 44.9001 83.311 44.8606C83.2324 44.8212 83.1117 44.8014 82.9433 44.8014H82.5475C82.3174 44.7986 82.1574 44.8409 82.0647 44.9311C81.9721 45.0214 81.9272 45.1821 81.9272 45.4161V45.966C81.9272 46.1972 81.9721 46.358 82.0647 46.451C82.1574 46.5441 82.3174 46.5892 82.5475 46.5892H82.9433C83.1117 46.5892 83.2324 46.5695 83.311 46.53C83.3896 46.4905 83.4345 46.4228 83.4542 46.3298C83.4626 46.2903 83.4795 46.2621 83.4991 46.2424C83.5188 46.2226 83.5468 46.2113 83.5861 46.2113C83.6282 46.2113 83.6619 46.2226 83.6844 46.248C83.7068 46.2734 83.7181 46.3044 83.7124 46.3467C83.6872 46.5187 83.6142 46.6456 83.4879 46.7245C83.3616 46.8035 83.1819 46.8458 82.9461 46.8458H82.5503H82.5532Z" fill="#646567"/>
<path d="M85.2172 46.8458C84.9169 46.8458 84.6951 46.7753 84.5548 46.6371C84.4144 46.4961 84.3442 46.2762 84.3442 45.9745V45.4246C84.3442 45.1172 84.4144 44.8945 84.5548 44.7563C84.6951 44.6153 84.9169 44.5476 85.2172 44.5505H85.613C85.9133 44.5505 86.1351 44.621 86.2754 44.7591C86.4158 44.9001 86.4832 45.1201 86.4832 45.4246V45.9688C86.4832 46.2706 86.413 46.4933 86.2754 46.6343C86.1351 46.7753 85.9161 46.8458 85.613 46.8458H85.2172ZM84.5997 45.9745C84.5997 46.2029 84.6446 46.3636 84.7372 46.4538C84.8298 46.5441 84.9898 46.592 85.22 46.592H85.6158C85.846 46.592 86.006 46.5469 86.0958 46.4538C86.1856 46.3636 86.2305 46.2001 86.2305 45.9688V45.4246C86.2305 45.1934 86.1856 45.0327 86.0958 44.9424C86.006 44.8522 85.846 44.8071 85.6158 44.8071H85.22C85.0656 44.8071 84.9421 44.824 84.8523 44.8635C84.7625 44.9029 84.6979 44.9678 84.6586 45.058C84.6193 45.1483 84.5997 45.2723 84.5997 45.4274V45.9773V45.9745Z" fill="#646567"/>
<path d="M89.784 44.5476C90.0422 44.5476 90.2303 44.6153 90.3397 44.7479C90.452 44.8804 90.5082 45.1003 90.5082 45.4049V46.7245C90.5082 46.8091 90.4661 46.8514 90.3818 46.8514C90.2976 46.8514 90.2527 46.8091 90.2527 46.7245V45.4049C90.2527 45.1906 90.2162 45.0383 90.1433 44.9424C90.0703 44.8494 89.9496 44.8014 89.7812 44.8014H89.5819C89.3713 44.8014 89.2198 44.8494 89.1299 44.9424C89.0401 45.0355 88.9924 45.1906 88.9924 45.4049V46.7245C88.9924 46.8091 88.9503 46.8514 88.8661 46.8514C88.7819 46.8514 88.737 46.8091 88.737 46.7245V45.4049C88.737 45.1906 88.7005 45.0383 88.6275 44.9424C88.5545 44.8494 88.4338 44.8014 88.2654 44.8014H88.0661C87.8556 44.8014 87.704 44.8494 87.6142 44.9424C87.5243 45.0355 87.4766 45.1906 87.4766 45.4049V46.7245C87.4766 46.8091 87.4345 46.8514 87.3503 46.8514C87.2661 46.8514 87.2212 46.8091 87.2212 46.7245V44.6802C87.2212 44.5956 87.2633 44.5533 87.3503 44.5533C87.4373 44.5533 87.4766 44.5956 87.4766 44.6802V44.8691C87.5468 44.7535 87.631 44.6717 87.7293 44.6238C87.8275 44.573 87.951 44.5505 88.0998 44.5505H88.2654C88.4338 44.5505 88.5713 44.5787 88.6724 44.6379C88.7734 44.6971 88.8548 44.793 88.9166 44.9283C88.9868 44.793 89.0738 44.6971 89.1777 44.6379C89.2815 44.5787 89.4163 44.5505 89.5819 44.5505H89.7812L89.784 44.5476Z" fill="#646567"/>
<path d="M93.8347 44.5476C94.093 44.5476 94.2811 44.6153 94.3905 44.7479C94.5028 44.8804 94.5589 45.1003 94.5589 45.4049V46.7245C94.5589 46.8091 94.5168 46.8514 94.4326 46.8514C94.3484 46.8514 94.3035 46.8091 94.3035 46.7245V45.4049C94.3035 45.1906 94.267 45.0383 94.194 44.9424C94.1211 44.8494 94.0004 44.8014 93.8319 44.8014H93.6326C93.4221 44.8014 93.2705 44.8494 93.1807 44.9424C93.0909 45.0355 93.0432 45.1906 93.0432 45.4049V46.7245C93.0432 46.8091 93.0011 46.8514 92.9169 46.8514C92.8327 46.8514 92.7877 46.8091 92.7877 46.7245V45.4049C92.7877 45.1906 92.7513 45.0383 92.6783 44.9424C92.6053 44.8494 92.4846 44.8014 92.3162 44.8014H92.1169C91.9064 44.8014 91.7548 44.8494 91.6649 44.9424C91.5751 45.0355 91.5274 45.1906 91.5274 45.4049V46.7245C91.5274 46.8091 91.4853 46.8514 91.4011 46.8514C91.3169 46.8514 91.272 46.8091 91.272 46.7245V44.6802C91.272 44.5956 91.3141 44.5533 91.4011 44.5533C91.4881 44.5533 91.5274 44.5956 91.5274 44.6802V44.8691C91.5976 44.7535 91.6818 44.6717 91.78 44.6238C91.8783 44.573 92.0018 44.5505 92.1506 44.5505H92.3162C92.4846 44.5505 92.6221 44.5787 92.7232 44.6379C92.8242 44.6971 92.9056 44.793 92.9674 44.9283C93.0376 44.793 93.1246 44.6971 93.2284 44.6379C93.3323 44.5787 93.467 44.5505 93.6326 44.5505H93.8319L93.8347 44.5476Z" fill="#646567"/>
<path d="M97.2424 44.5533C97.3266 44.5533 97.3715 44.5956 97.3715 44.683V46.7217C97.3715 46.8063 97.3294 46.8486 97.2424 46.8486C97.1553 46.8486 97.116 46.8063 97.116 46.7217V46.4877C96.9617 46.7274 96.6866 46.8458 96.2852 46.8458H96.1504C95.8501 46.8458 95.6283 46.7753 95.488 46.6371C95.3476 46.499 95.2803 46.2762 95.2803 45.9717V44.6802C95.2803 44.5956 95.3224 44.5505 95.4066 44.5505C95.4908 44.5505 95.5357 44.5928 95.5357 44.6802V45.9717C95.5357 46.2029 95.5806 46.3636 95.6732 46.4538C95.7631 46.5441 95.9231 46.5892 96.1532 46.5892H96.288C96.5378 46.5892 96.7343 46.5497 96.8774 46.4708C97.0206 46.3918 97.102 46.2677 97.1188 46.0985V44.6774C97.1188 44.5928 97.161 44.5476 97.2452 44.5476L97.2424 44.5533Z" fill="#646567"/>
<path d="M98.3064 46.8458C98.2222 46.8458 98.1772 46.8035 98.1772 46.7161V44.6774C98.1772 44.5928 98.2193 44.5505 98.3064 44.5505C98.3934 44.5505 98.4327 44.5928 98.4327 44.6774V44.9114C98.5871 44.6717 98.8621 44.5533 99.2635 44.5533H99.3983C99.6986 44.5533 99.9204 44.6238 100.061 44.762C100.201 44.9029 100.268 45.1229 100.268 45.4274V46.7189C100.268 46.8035 100.226 46.8486 100.142 46.8486C100.058 46.8486 100.013 46.8063 100.013 46.7189V45.4274C100.013 45.1962 99.9681 45.0355 99.8755 44.9452C99.7856 44.855 99.6256 44.8099 99.3955 44.8099H99.2607C99.0109 44.8099 98.8144 44.8494 98.6713 44.9283C98.5281 45.0073 98.4467 45.1313 98.4299 45.3005V46.7217C98.4299 46.8063 98.3878 46.8514 98.3036 46.8514L98.3064 46.8458Z" fill="#646567"/>
<path d="M101.105 44.1078C100.993 44.1078 100.937 44.0514 100.937 43.9357V43.8258C100.937 43.7158 100.993 43.6594 101.105 43.6594H101.212C101.321 43.6594 101.377 43.7158 101.377 43.8258V43.9357C101.377 44.0514 101.321 44.1078 101.212 44.1078H101.105ZM101.158 46.8458C101.074 46.8458 101.029 46.8035 101.029 46.7161V44.6774C101.029 44.5928 101.071 44.5505 101.158 44.5505C101.245 44.5505 101.285 44.5928 101.285 44.6774V46.7161C101.285 46.8007 101.242 46.8458 101.158 46.8458Z" fill="#646567"/>
<path d="M103.024 46.8458C102.727 46.8458 102.511 46.7781 102.373 46.64C102.236 46.5018 102.168 46.2847 102.168 45.9886V44.8071H101.882C101.798 44.8071 101.753 44.7648 101.753 44.6774C101.753 44.5899 101.795 44.5505 101.882 44.5505H102.168V44.0288C102.168 43.9442 102.21 43.8991 102.295 43.8991C102.379 43.8991 102.424 43.9414 102.424 44.0288V44.5505H103.03C103.114 44.5505 103.156 44.5928 103.156 44.6774C103.156 44.762 103.114 44.8071 103.03 44.8071H102.424V45.9886C102.424 46.2142 102.469 46.3721 102.556 46.4595C102.643 46.5469 102.8 46.5892 103.027 46.5892C103.075 46.5892 103.109 46.6005 103.128 46.6202C103.148 46.6428 103.159 46.6738 103.159 46.7161C103.159 46.8007 103.114 46.8458 103.03 46.8458H103.024Z" fill="#646567"/>
<path d="M104.304 47.8186C104.094 47.8186 103.937 47.7679 103.836 47.6664C103.735 47.5649 103.684 47.407 103.684 47.1898C103.684 47.1052 103.726 47.0629 103.81 47.0629C103.895 47.0629 103.94 47.1052 103.94 47.1898C103.94 47.3365 103.965 47.4351 104.018 47.4859C104.071 47.5367 104.164 47.5649 104.304 47.5649H105.141C105.284 47.5649 105.38 47.5395 105.43 47.4859C105.481 47.4323 105.509 47.3365 105.509 47.1898V46.5215C105.416 46.6428 105.301 46.7274 105.163 46.7753C105.026 46.8232 104.863 46.8486 104.678 46.8486H104.543C104.245 46.8486 104.029 46.7809 103.892 46.6428C103.754 46.5046 103.687 46.2903 103.687 45.9942V44.6745C103.687 44.5899 103.729 44.5448 103.813 44.5448C103.897 44.5448 103.942 44.5871 103.942 44.6745V45.9942C103.942 46.2198 103.987 46.3749 104.074 46.4623C104.161 46.5497 104.318 46.592 104.546 46.592H104.681C104.961 46.592 105.172 46.5413 105.307 46.4426C105.444 46.3439 105.511 46.1916 105.511 45.9914V44.6717C105.511 44.5871 105.554 44.542 105.638 44.542C105.722 44.542 105.767 44.5843 105.767 44.6717V47.1842C105.767 47.3985 105.716 47.5592 105.615 47.6607C105.514 47.7623 105.357 47.813 105.147 47.813H104.31L104.304 47.8186Z" fill="#646567"/>
</g>
<defs>
<linearGradient id="paint0_linear_1740_45186" x1="0.783148" y1="34.6952" x2="46.9229" y2="26.5982" gradientUnits="userSpaceOnUse">
<stop stop-color="#0047BB"/>
<stop offset="0.46" stop-color="#0047BB"/>
<stop offset="0.53" stop-color="#6689C1"/>
<stop offset="0.58" stop-color="#AAB4C6"/>
<stop offset="0.61" stop-color="#C5C6C8"/>
<stop offset="0.84" stop-color="#E8DD4D"/>
<stop offset="1" stop-color="#FFED00"/>
</linearGradient>
<clipPath id="clip0_1740_45186">
<rect width="114" height="57" fill="white"/>
</clipPath>
</defs>
</svg>
